{"title":"The Loved Ones (2009) DVDRIP Xvid-BHRG","uid":7551479,"size":737449723,"categoryP":"video","categoryS":"movies","magnet":"?xt=urn:btih:2d1a354450b0e527e0e86793db1a11139429a1c1&amp;dn=The+Loved+Ones+%282009%29+DVDRIP+Xvid-BHRG&amp;tr=udp%3A%2F%2Ftracker.openbittorrent.com%3A80&amp;tr=udp%3A%2F%2Fopen.demonii.com%3A1337&amp;tr=udp%3A%2F%2Ftracker.coppersurfer.tk%3A6969&amp;tr=udp%3A%2F%2Fexodus.desync.com%3A6969","seeders":36,"leechers":1,"uploader":"haloReD","files":-1,"time":1345491964,"description":"                     The Loved Ones 2009 DVDRIP Xvid-BHRG  \n\nFile size         : 696 MiB\nDuration          : 1h 24mn\nOverall bit rate  : 1 157 Kbps\n\nVideo:\n\nFormat            : MPEG-4 Visual\nCodec ID          : XVID\nDuration          : 1h 24mn\nBit rate          : 1 023 Kbps\nWidth             : 640 pixels\nHeight            : 256 pixels\nAspect ratio      : 2.500\nFrame rate        : 23.976 fps\nStream size       : 616 MiB (88%)\n\nAudio:\n\nFormat            : MPEG Audio\nCodec ID          : 55\nDuration          : 1h 24mn\nBit rate          : 128 Kbps\nChannel(s)        : 2 channels\nSampling rate     : 48.0 KHz\nCompression mode  : Lossy\nStream size       : 77.0 MiB (11%)\n\niMDB Info:\n &lt;a href=&quot;\nhttp://www.imdb.com/title/tt1316536/&quot; rel=&quot;nofollow&quot; target=&quot;_NEW&quot;&gt;\nhttp://www.imdb.com/title/tt1316536/&lt;/a&gt;\n\nRatings: 6.7/10 from 8,628 users  \n\nWhen Brent turns down his classmate Lola's invitation to the prom, \nshe concocts a wildly violent plan for revenge.\n\nDirector: Sean Byrne\nWriter  : Sean Byrne\nStars   : Xavier Samuel, Robin McLeavy and Victoria Thaine\n\nScreen:\n &lt;a href=&quot;\nhttp://www.postimg.com/81000/photo-80299.jpg&quot; rel=&quot;nofollow&quot; target=&quot;_NEW&quot;&gt;\nhttp://www.postimg.com/81000/photo-80299.jpg&lt;/a&gt;\n &lt;a href=&quot;\nhttp://www.postimg.com/81000/photo-80300.jpg&quot; rel=&quot;nofollow&quot; target=&quot;_NEW&quot;&gt;\nhttp://www.postimg.com/81000/photo-80300.jpg&lt;/a&gt;\n &lt;a href=&quot;\nhttp://www.postimg.com/81000/photo-80301.jpg&quot; rel=&quot;nofollow&quot; target=&quot;_NEW&quot;&gt;\nhttp://www.postimg.com/81000/photo-80301.jpg&lt;/a&gt;\n &lt;a href=&quot;\nhttp://www.postimg.com/81000/photo-80302.jpg&quot; rel=&quot;nofollow&quot; target=&quot;_NEW&quot;&gt;\nhttp://www.postimg.com/81000/photo-80302.jpg&lt;/a&gt;\n\n","torrent":{"xt":"urn:btih:2d1a354450b0e527e0e86793db1a11139429a1c1","amp;dn":"The+Loved+Ones+%282009%29+DVDRIP+Xvid-BHRG","amp;tr":["udp%3A%2F%2Ftracker.openbittorrent.com%3A80","udp%3A%2F%2Fopen.demonii.com%3A1337","udp%3A%2F%2Ftracker.coppersurfer.tk%3A6969","udp%3A%2F%2Fexodus.desync.com%3A6969"],"infoHash":"2d1a354450b0e527e0e86793db1a11139429a1c1","infoHashBuffer":{"type":"Buffer","data":[45,26,53,68,80,176,229,39,224,232,103,147,219,26,17,19,148,41,161,193]},"announce":[],"urlList":[]}}